<svg xmlns="http://www.w3.org/2000/svg" width="720" height="600" viewBox="0 0 720 600" role="img" aria-label="git-farm drawn as a farm: 50 files in 11 directories, 30 commits">
<title>git-farm drawn as a farm: 50 files in 11 directories, 30 commits</title>
<style>
.label{font-family:ui-monospace,SFMono-Regular,Menlo,Consolas,"DejaVu Sans Mono",monospace}
.walk{animation:walk 14s ease-in-out infinite alternate}
@keyframes walk{from{transform:translateX(0)}to{transform:translateX(150px)}}
.step-a{animation:step-a .7s steps(1,end) infinite}
.step-b{animation:step-b .7s steps(1,end) infinite}
@keyframes step-a{0%{fill-opacity:1}50%{fill-opacity:0}}
@keyframes step-b{0%{fill-opacity:0}50%{fill-opacity:1}}
@media(prefers-reduced-motion:reduce){.walk,.step-a,.step-b{animation:none}.step-b{fill-opacity:0}}
</style>
<g shape-rendering="crispEdges">
<path fill="#3a6f22" d="M84 138h6v12h-6zM408 138h6v12h-6zM42 150h6v12h-6zM78 150h6v6h-6zM90 150h6v6h-6zM168 150h6v12h-6zM282 150h6v12h-6zM324 150h6v12h-6zM366 150h6v12h-6zM402 150h6v6h-6zM414 150h6v6h-6zM450 150h6v12h-6zM564 150h6v12h-6zM84 156h6v6h-6zM408 156h6v6h-6zM42 192h6v12h-6zM84 192h6v12h-6zM126 192h6v12h-6zM168 192h6v12h-6zM282 192h6v12h-6zM408 192h6v12h-6zM450 192h6v12h-6zM606 192h6v12h-6zM648 192h6v12h-6zM84 234h6v12h-6zM126 234h6v12h-6zM168 234h6v12h-6zM42 276h6v12h-6zM126 276h6v12h-6zM168 276h6v12h-6zM84 318h6v12h-6zM126 318h6v12h-6zM168 318h6v12h-6zM324 318h6v12h-6zM366 318h6v12h-6zM486 318h6v12h-6zM636 318h6v12h-6zM594 360h6v12h-6zM324 402h6v12h-6zM42 438h6v12h-6zM168 438h6v12h-6zM444 486h6v12h-6zM444 528h6v12h-6zM594 528h6v12h-6zM636 528h6v12h-6z"/>
<path fill="#4a3a2c" d="M318 504h18v6h-18zM318 546h18v6h-18z"/>
<path fill="#4f8a2c" d="M0 90h720v6h-720zM0 108h18v6h-18zM246 108h12v6h-12zM528 108h12v6h-12zM702 108h18v6h-18zM0 126h18v6h-18zM246 126h12v6h-12zM528 126h18v6h-18zM696 126h24v6h-24zM0 144h18v6h-18zM246 144h12v6h-12zM528 144h18v6h-18zM696 144h24v6h-24zM0 162h18v6h-18zM246 162h12v6h-12zM528 162h18v6h-18zM696 162h24v6h-24zM0 180h18v6h-18zM246 180h12v6h-12zM528 180h18v6h-18zM696 180h24v6h-24zM0 198h18v6h-18zM246 198h12v6h-12zM528 198h18v6h-18zM696 198h24v6h-24zM0 216h18v6h-18zM246 216h12v6h-12zM528 216h18v6h-18zM696 216h24v6h-24zM0 234h18v6h-18zM246 234h12v6h-12zM528 234h12v6h-12zM702 234h18v6h-18zM0 252h18v6h-18zM246 252h474v6h-474zM0 270h18v6h-18zM246 270h12v6h-12zM408 270h12v6h-12zM558 270h12v6h-12zM702 270h18v6h-18zM0 288h18v6h-18zM246 288h12v6h-12zM408 288h12v6h-12zM558 288h18v6h-18zM696 288h24v6h-24zM0 306h18v6h-18zM246 306h12v6h-12zM408 306h12v6h-12zM558 306h18v6h-18zM696 306h24v6h-24zM0 324h18v6h-18zM246 324h12v6h-12zM408 324h12v6h-12zM558 324h18v6h-18zM696 324h24v6h-24zM0 342h18v6h-18zM246 342h12v6h-12zM408 342h12v6h-12zM558 342h18v6h-18zM696 342h24v6h-24zM0 360h258v6h-258zM408 360h12v6h-12zM558 360h18v6h-18zM696 360h24v6h-24zM0 378h258v6h-258zM408 378h12v6h-12zM558 378h18v6h-18zM696 378h24v6h-24zM0 396h18v6h-18zM246 396h12v6h-12zM408 396h12v6h-12zM558 396h12v6h-12zM702 396h18v6h-18zM0 414h24v6h-24zM240 414h18v6h-18zM408 414h312v6h-312zM0 432h24v6h-24zM240 432h180v6h-180zM432 432h108v6h-108zM558 432h12v6h-12zM582 432h96v6h-96zM702 432h18v6h-18zM0 450h24v6h-24zM240 450h18v6h-18zM408 450h12v6h-12zM558 450h12v6h-12zM702 450h18v6h-18zM0 468h24v6h-24zM240 468h24v6h-24zM402 468h18v6h-18zM558 468h18v6h-18zM696 468h24v6h-24zM0 486h24v6h-24zM240 486h24v6h-24zM402 486h18v6h-18zM558 486h18v6h-18zM696 486h24v6h-24zM0 504h24v6h-24zM240 504h24v6h-24zM402 504h18v6h-18zM558 504h18v6h-18zM696 504h24v6h-24zM0 522h24v6h-24zM240 522h24v6h-24zM402 522h18v6h-18zM558 522h18v6h-18zM696 522h24v6h-24zM0 540h24v6h-24zM240 540h24v6h-24zM402 540h18v6h-18zM558 540h18v6h-18zM696 540h24v6h-24zM0 558h18v6h-18zM246 558h12v6h-12zM408 558h12v6h-12zM558 558h12v6h-12zM702 558h18v6h-18zM0 576h720v6h-720zM0 594h720v6h-720z"/>
<path fill="#4f9b2e" d="M84 114h6v6h-6zM408 114h6v6h-6zM78 120h18v12h-18zM402 120h18v12h-18zM42 132h6v6h-6zM84 132h6v6h-6zM168 132h6v6h-6zM282 132h6v6h-6zM324 132h6v6h-6zM366 132h6v6h-6zM408 132h6v6h-6zM450 132h6v6h-6zM564 132h6v6h-6zM36 138h18v6h-18zM162 138h18v6h-18zM276 138h18v6h-18zM318 138h18v6h-18zM360 138h18v6h-18zM444 138h18v6h-18zM558 138h18v6h-18zM42 144h6v6h-6zM168 144h6v6h-6zM282 144h6v6h-6zM324 144h6v6h-6zM366 144h6v6h-6zM450 144h6v6h-6zM564 144h6v6h-6zM42 174h6v6h-6zM84 174h6v6h-6zM126 174h6v6h-6zM168 174h6v6h-6zM282 174h6v6h-6zM408 174h6v6h-6zM450 174h6v6h-6zM606 174h6v6h-6zM648 174h6v6h-6zM36 180h18v6h-18zM78 180h18v6h-18zM120 180h18v6h-18zM162 180h18v6h-18zM276 180h18v6h-18zM402 180h18v6h-18zM444 180h18v6h-18zM600 180h18v6h-18zM642 180h18v6h-18zM42 186h6v6h-6zM84 186h6v6h-6zM126 186h6v6h-6zM168 186h6v6h-6zM282 186h6v6h-6zM408 186h6v6h-6zM450 186h6v6h-6zM606 186h6v6h-6zM648 186h6v6h-6zM84 216h6v6h-6zM126 216h6v6h-6zM168 216h6v6h-6zM78 222h18v6h-18zM120 222h18v6h-18zM162 222h18v6h-18zM84 228h6v6h-6zM126 228h6v6h-6zM168 228h6v6h-6zM42 258h6v6h-6zM126 258h6v6h-6zM168 258h6v6h-6zM36 264h18v6h-18zM120 264h18v6h-18zM162 264h18v6h-18zM42 270h6v6h-6zM126 270h6v6h-6zM168 270h6v6h-6zM84 300h6v6h-6zM126 300h6v6h-6zM168 300h6v6h-6zM324 300h6v6h-6zM366 300h6v6h-6zM486 300h6v6h-6zM636 300h6v6h-6zM78 306h18v6h-18zM120 306h18v6h-18zM162 306h18v6h-18zM318 306h18v6h-18zM360 306h18v6h-18zM480 306h18v6h-18zM630 306h18v6h-18zM84 312h6v6h-6zM126 312h6v6h-6zM168 312h6v6h-6zM324 312h6v6h-6zM366 312h6v6h-6zM486 312h6v6h-6zM636 312h6v6h-6zM594 342h6v6h-6zM588 348h18v6h-18zM594 354h6v6h-6zM324 384h6v6h-6zM318 390h18v6h-18zM324 396h6v6h-6zM42 420h6v6h-6zM168 420h6v6h-6zM36 426h18v6h-18zM162 426h18v6h-18zM42 432h6v6h-6zM168 432h6v6h-6zM444 468h6v6h-6zM438 474h18v6h-18zM444 480h6v6h-6zM444 510h6v6h-6zM594 510h6v6h-6zM636 510h6v6h-6zM438 516h18v6h-18zM588 516h18v6h-18zM630 516h18v6h-18zM444 522h6v6h-6zM594 522h6v6h-6zM636 522h6v6h-6z"/>
<path fill="#5a9c34" d="M0 84h720v6h-720zM0 96h18v12h-18zM30 96h42v6h-42zM246 96h12v12h-12zM270 96h96v6h-96zM528 96h12v12h-12zM552 96h126v6h-126zM702 96h18v12h-18zM0 114h18v12h-18zM246 114h12v12h-12zM528 114h12v6h-12zM702 114h18v6h-18zM528 120h18v6h-18zM696 120h24v6h-24zM0 132h18v12h-18zM246 132h12v12h-12zM528 132h18v12h-18zM696 132h24v12h-24zM0 150h18v12h-18zM246 150h12v12h-12zM528 150h18v12h-18zM696 150h24v12h-24zM0 168h18v12h-18zM246 168h12v12h-12zM528 168h18v12h-18zM696 168h24v12h-24zM0 186h18v12h-18zM246 186h12v12h-12zM528 186h18v12h-18zM696 186h24v12h-24zM0 204h18v12h-18zM246 204h12v12h-12zM528 204h18v12h-18zM696 204h24v12h-24zM0 222h18v12h-18zM246 222h12v12h-12zM528 222h18v6h-18zM696 222h24v6h-24zM528 228h12v6h-12zM702 228h18v6h-18zM0 240h18v12h-18zM246 240h12v12h-12zM528 240h12v12h-12zM702 240h18v12h-18zM564 246h114v6h-114zM0 258h18v12h-18zM246 258h474v6h-474zM246 264h12v6h-12zM270 264h90v6h-90zM408 264h12v6h-12zM432 264h90v6h-90zM558 264h12v6h-12zM582 264h96v6h-96zM702 264h18v6h-18zM0 276h18v12h-18zM246 276h12v12h-12zM408 276h12v12h-12zM558 276h12v12h-12zM702 276h18v12h-18zM0 294h18v12h-18zM246 294h12v12h-12zM408 294h12v12h-12zM558 294h18v12h-18zM696 294h24v12h-24zM0 312h18v12h-18zM246 312h12v12h-12zM408 312h12v12h-12zM558 312h18v12h-18zM696 312h24v12h-24zM0 330h18v12h-18zM246 330h12v12h-12zM408 330h12v12h-12zM558 330h18v12h-18zM696 330h24v12h-24zM0 348h18v12h-18zM246 348h12v12h-12zM408 348h12v12h-12zM558 348h18v12h-18zM696 348h24v12h-24zM0 366h258v12h-258zM408 366h12v12h-12zM558 366h18v12h-18zM696 366h24v12h-24zM0 384h18v12h-18zM30 384h192v6h-192zM246 384h12v12h-12zM408 384h12v12h-12zM558 384h12v12h-12zM702 384h18v12h-18zM0 402h18v6h-18zM246 402h12v6h-12zM408 402h12v6h-12zM558 402h12v6h-12zM594 402h84v6h-84zM702 402h18v6h-18zM0 408h24v6h-24zM240 408h18v6h-18zM408 408h312v6h-312zM0 420h24v12h-24zM240 420h18v12h-18zM408 420h312v12h-312zM0 438h24v12h-24zM240 438h180v6h-180zM558 438h12v12h-12zM702 438h18v12h-18zM240 444h18v6h-18zM270 444h114v6h-114zM408 444h12v6h-12zM0 456h24v12h-24zM240 456h18v12h-18zM408 456h12v12h-12zM558 456h18v12h-18zM696 456h24v12h-24zM0 474h24v12h-24zM240 474h24v12h-24zM402 474h18v12h-18zM558 474h18v12h-18zM696 474h24v12h-24zM0 492h24v12h-24zM240 492h24v12h-24zM402 492h18v12h-18zM558 492h18v12h-18zM696 492h24v12h-24zM0 510h24v12h-24zM240 510h24v12h-24zM402 510h18v12h-18zM558 510h18v12h-18zM696 510h24v12h-24zM0 528h24v12h-24zM240 528h24v12h-24zM402 528h18v12h-18zM558 528h18v12h-18zM696 528h24v12h-24zM0 546h24v6h-24zM240 546h24v6h-24zM402 546h18v6h-18zM558 546h18v6h-18zM696 546h24v6h-24zM0 552h18v6h-18zM246 552h12v6h-12zM408 552h12v6h-12zM558 552h12v6h-12zM702 552h18v6h-18zM0 564h18v12h-18zM246 564h12v12h-12zM408 564h12v12h-12zM558 564h12v12h-12zM702 564h18v12h-18zM42 570h180v6h-180zM282 570h102v6h-102zM594 570h84v6h-84zM0 582h720v12h-720z"/>
<path fill="#5e4129" d="M24 102h216v6h-216zM264 102h258v6h-258zM546 102h150v6h-150zM24 120h48v6h-48zM102 120h138v6h-138zM264 120h132v6h-132zM426 120h96v6h-96zM546 120h150v6h-150zM24 126h18v6h-18zM48 126h24v6h-24zM102 126h66v6h-66zM174 126h66v6h-66zM264 126h18v6h-18zM288 126h36v6h-36zM330 126h36v6h-36zM372 126h24v6h-24zM426 126h24v6h-24zM456 126h66v6h-66zM546 126h18v6h-18zM570 126h126v6h-126zM24 144h12v6h-12zM54 144h30v6h-30zM90 144h72v6h-72zM180 144h60v6h-60zM264 144h12v6h-12zM294 144h24v6h-24zM336 144h24v6h-24zM378 144h30v6h-30zM414 144h30v6h-30zM462 144h60v6h-60zM546 144h12v6h-12zM576 144h120v6h-120zM24 150h18v6h-18zM48 150h30v6h-30zM84 150h6v6h-6zM96 150h72v6h-72zM174 150h66v6h-66zM264 150h18v6h-18zM288 150h36v6h-36zM330 150h36v6h-36zM372 150h30v6h-30zM408 150h6v6h-6zM420 150h30v6h-30zM456 150h66v6h-66zM546 150h18v6h-18zM570 150h126v6h-126zM24 168h18v6h-18zM48 168h36v6h-36zM90 168h36v6h-36zM132 168h36v6h-36zM174 168h66v6h-66zM264 168h18v6h-18zM288 168h120v6h-120zM414 168h36v6h-36zM456 168h66v6h-66zM546 168h60v6h-60zM612 168h36v6h-36zM654 168h42v6h-42zM24 174h12v6h-12zM54 174h24v6h-24zM96 174h24v6h-24zM138 174h24v6h-24zM180 174h60v6h-60zM264 174h12v6h-12zM294 174h108v6h-108zM420 174h24v6h-24zM462 174h60v6h-60zM546 174h54v6h-54zM618 174h24v6h-24zM660 174h36v6h-36zM24 192h18v12h-18zM48 192h36v12h-36zM90 192h36v12h-36zM132 192h36v12h-36zM174 192h66v12h-66zM264 192h18v12h-18zM288 192h120v12h-120zM414 192h36v12h-36zM456 192h66v12h-66zM546 192h60v12h-60zM612 192h36v12h-36zM654 192h42v12h-42zM24 216h12v6h-12zM42 216h6v6h-6zM54 216h24v6h-24zM96 216h24v6h-24zM138 216h24v6h-24zM180 216h60v6h-60zM264 216h258v12h-258zM546 216h150v12h-150zM24 222h18v6h-18zM48 222h24v6h-24zM102 222h12v6h-12zM144 222h12v6h-12zM186 222h54v6h-54zM24 240h18v6h-18zM48 240h36v6h-36zM90 240h36v6h-36zM132 240h36v6h-36zM174 240h66v6h-66zM264 240h258v6h-258zM546 240h150v6h-150zM24 246h216v6h-216zM24 264h6v6h-6zM60 264h54v6h-54zM144 264h12v6h-12zM186 264h54v6h-54zM24 270h12v6h-12zM54 270h66v6h-66zM138 270h24v6h-24zM180 270h60v6h-60zM264 270h138v6h-138zM426 270h126v6h-126zM576 270h120v6h-120zM24 288h216v6h-216zM264 288h138v6h-138zM426 288h126v6h-126zM576 288h120v6h-120zM24 294h60v6h-60zM90 294h36v6h-36zM132 294h36v6h-36zM174 294h66v6h-66zM264 294h60v6h-60zM330 294h36v6h-36zM372 294h30v6h-30zM426 294h6v6h-6zM438 294h18v6h-18zM462 294h24v6h-24zM492 294h60v6h-60zM576 294h60v6h-60zM642 294h54v6h-54zM24 312h54v6h-54zM96 312h24v6h-24zM138 312h24v6h-24zM180 312h60v6h-60zM264 312h54v6h-54zM336 312h24v6h-24zM378 312h24v6h-24zM426 312h12v6h-12zM456 312h24v6h-24zM498 312h54v6h-54zM576 312h54v6h-54zM648 312h48v6h-48zM24 318h60v6h-60zM90 318h36v6h-36zM132 318h36v6h-36zM174 318h66v6h-66zM264 318h60v6h-60zM330 318h36v6h-36zM372 318h30v6h-30zM426 318h18v6h-18zM450 318h36v6h-36zM492 318h60v6h-60zM576 318h60v6h-60zM642 318h54v6h-54zM24 336h216v12h-216zM264 336h138v12h-138zM426 336h126v12h-126zM576 336h18v6h-18zM600 336h96v6h-96zM576 342h12v6h-12zM606 342h90v6h-90zM264 360h138v12h-138zM426 360h126v12h-126zM576 360h18v12h-18zM600 360h96v12h-96zM264 384h54v6h-54zM336 384h66v6h-66zM426 384h126v12h-126zM576 384h120v12h-120zM24 390h216v6h-216zM264 390h48v6h-48zM342 390h60v6h-60zM24 408h216v6h-216zM264 408h60v6h-60zM330 408h72v6h-72zM24 414h18v6h-18zM48 414h24v6h-24zM78 414h18v6h-18zM102 414h12v6h-12zM120 414h18v6h-18zM144 414h24v6h-24zM174 414h66v6h-66zM264 414h138v6h-138zM24 432h12v6h-12zM54 432h24v6h-24zM96 432h24v6h-24zM138 432h24v6h-24zM180 432h60v6h-60zM24 438h18v6h-18zM48 438h36v6h-36zM90 438h36v6h-36zM132 438h36v6h-36zM174 438h66v6h-66zM426 438h126v6h-126zM576 438h120v6h-120zM24 456h216v12h-216zM426 456h126v6h-126zM576 456h120v12h-120zM426 462h18v6h-18zM450 462h102v6h-102zM24 480h216v12h-216zM426 480h12v6h-12zM456 480h96v6h-96zM576 480h120v12h-120zM426 486h18v6h-18zM450 486h102v6h-102zM24 504h216v12h-216zM426 504h18v6h-18zM450 504h102v6h-102zM576 504h18v6h-18zM600 504h36v6h-36zM642 504h54v6h-54zM426 510h12v6h-12zM456 510h96v6h-96zM576 510h12v6h-12zM606 510h24v6h-24zM648 510h48v6h-48zM24 528h216v12h-216zM426 528h18v12h-18zM450 528h102v12h-102zM576 528h18v12h-18zM600 528h36v12h-36zM642 528h54v12h-54zM24 552h216v12h-216zM426 552h126v12h-126zM576 552h120v12h-120z"/>
<path fill="#6b4a2f" d="M24 108h60v6h-60zM90 108h150v6h-150zM264 108h144v6h-144zM414 108h108v6h-108zM546 108h150v12h-150zM24 114h54v6h-54zM96 114h144v6h-144zM264 114h138v6h-138zM420 114h102v6h-102zM24 132h12v6h-12zM54 132h24v6h-24zM96 132h66v6h-66zM180 132h60v6h-60zM264 132h12v6h-12zM294 132h24v6h-24zM336 132h24v6h-24zM378 132h24v6h-24zM420 132h24v6h-24zM462 132h60v6h-60zM546 132h12v6h-12zM576 132h120v6h-120zM24 138h6v6h-6zM60 138h24v6h-24zM90 138h66v6h-66zM186 138h54v6h-54zM264 138h6v6h-6zM300 138h12v6h-12zM342 138h12v6h-12zM384 138h24v6h-24zM414 138h24v6h-24zM468 138h54v6h-54zM546 138h6v6h-6zM582 138h114v6h-114zM24 156h18v6h-18zM48 156h36v6h-36zM90 156h78v6h-78zM174 156h66v6h-66zM264 156h18v6h-18zM288 156h36v6h-36zM330 156h36v6h-36zM372 156h36v6h-36zM414 156h36v6h-36zM456 156h66v6h-66zM546 156h18v6h-18zM570 156h126v6h-126zM24 162h216v6h-216zM264 162h258v6h-258zM546 162h150v6h-150zM24 180h6v6h-6zM60 180h12v6h-12zM102 180h12v6h-12zM144 180h12v6h-12zM186 180h54v6h-54zM264 180h6v6h-6zM300 180h96v6h-96zM426 180h12v6h-12zM468 180h54v6h-54zM546 180h48v6h-48zM624 180h12v6h-12zM666 180h30v6h-30zM24 186h12v6h-12zM54 186h24v6h-24zM96 186h24v6h-24zM138 186h24v6h-24zM180 186h60v6h-60zM264 186h12v6h-12zM294 186h108v6h-108zM420 186h24v6h-24zM462 186h60v6h-60zM546 186h54v6h-54zM618 186h24v6h-24zM660 186h36v6h-36zM24 204h216v6h-216zM264 204h258v12h-258zM546 204h150v12h-150zM24 210h6v6h-6zM36 210h18v6h-18zM60 210h24v6h-24zM90 210h36v6h-36zM132 210h36v6h-36zM174 210h66v6h-66zM24 228h12v6h-12zM54 228h24v6h-24zM96 228h24v6h-24zM138 228h24v6h-24zM180 228h60v6h-60zM264 228h258v12h-258zM546 228h150v12h-150zM24 234h18v6h-18zM48 234h36v6h-36zM90 234h36v6h-36zM132 234h36v6h-36zM174 234h66v6h-66zM24 252h18v6h-18zM48 252h78v6h-78zM132 252h36v6h-36zM174 252h66v6h-66zM24 258h12v6h-12zM54 258h66v6h-66zM138 258h24v6h-24zM180 258h60v6h-60zM24 276h18v12h-18zM48 276h78v12h-78zM132 276h36v12h-36zM174 276h66v12h-66zM264 276h138v12h-138zM426 276h126v12h-126zM576 276h120v12h-120zM24 300h54v6h-54zM96 300h24v6h-24zM138 300h24v6h-24zM180 300h60v6h-60zM264 300h54v6h-54zM336 300h24v6h-24zM378 300h24v6h-24zM426 300h12v6h-12zM444 300h6v6h-6zM456 300h24v6h-24zM498 300h54v6h-54zM576 300h54v6h-54zM648 300h48v6h-48zM24 306h48v6h-48zM102 306h12v6h-12zM144 306h12v6h-12zM186 306h54v6h-54zM264 306h48v6h-48zM342 306h12v6h-12zM384 306h18v6h-18zM426 306h18v6h-18zM450 306h24v6h-24zM504 306h48v6h-48zM576 306h48v6h-48zM654 306h42v6h-42zM24 324h60v6h-60zM90 324h36v6h-36zM132 324h36v6h-36zM174 324h66v6h-66zM264 324h60v6h-60zM330 324h36v6h-36zM372 324h30v6h-30zM426 324h18v6h-18zM450 324h36v6h-36zM492 324h60v6h-60zM576 324h60v6h-60zM642 324h54v6h-54zM24 330h216v6h-216zM264 330h138v6h-138zM426 330h126v6h-126zM576 330h120v6h-120zM24 348h216v6h-216zM264 348h138v12h-138zM426 348h126v12h-126zM576 348h6v6h-6zM612 348h84v6h-84zM576 354h12v6h-12zM606 354h90v6h-90zM264 372h138v6h-138zM426 372h126v12h-126zM576 372h120v12h-120zM264 378h60v6h-60zM330 378h72v6h-72zM24 396h216v12h-216zM264 396h54v6h-54zM336 396h66v6h-66zM426 396h126v6h-126zM576 396h120v6h-120zM264 402h60v6h-60zM330 402h72v6h-72zM24 420h12v6h-12zM54 420h24v6h-24zM84 420h6v6h-6zM96 420h24v6h-24zM126 420h6v6h-6zM138 420h24v6h-24zM180 420h60v6h-60zM264 420h138v6h-138zM24 426h6v6h-6zM60 426h24v6h-24zM90 426h36v6h-36zM132 426h24v6h-24zM186 426h54v6h-54zM24 444h18v6h-18zM48 444h36v6h-36zM90 444h36v6h-36zM132 444h36v6h-36zM174 444h66v6h-66zM426 444h126v12h-126zM576 444h120v12h-120zM24 450h216v6h-216zM24 468h216v12h-216zM426 468h12v6h-12zM456 468h96v6h-96zM576 468h120v12h-120zM426 474h6v6h-6zM462 474h90v6h-90zM24 492h216v12h-216zM426 492h18v6h-18zM450 492h102v6h-102zM576 492h120v12h-120zM426 498h126v6h-126zM24 516h216v12h-216zM426 516h6v6h-6zM462 516h90v6h-90zM576 516h6v6h-6zM612 516h12v6h-12zM654 516h42v6h-42zM426 522h12v6h-12zM456 522h96v6h-96zM576 522h12v6h-12zM606 522h24v6h-24zM648 522h48v6h-48zM24 540h216v12h-216zM426 540h126v12h-126zM576 540h120v12h-120zM24 564h216v6h-216zM426 564h126v6h-126zM576 564h120v6h-120z"/>
<path fill="#735d4a" d="M264 450h138v6h-138zM264 468h138v12h-138zM264 492h138v12h-138zM264 516h138v12h-138zM264 540h138v6h-138zM264 546h54v6h-54zM336 546h66v6h-66zM264 564h138v6h-138z"/>
<path fill="#7ec8f0" d="M0 0h138v6h-138zM144 0h576v6h-576z"/>
<path fill="#7ecb4f" d="M84 108h6v6h-6zM408 108h6v6h-6zM78 114h6v6h-6zM90 114h6v6h-6zM402 114h6v6h-6zM414 114h6v6h-6zM72 120h6v12h-6zM96 120h6v12h-6zM396 120h6v12h-6zM420 120h6v12h-6zM42 126h6v6h-6zM168 126h6v6h-6zM282 126h6v6h-6zM324 126h6v6h-6zM366 126h6v6h-6zM450 126h6v6h-6zM564 126h6v6h-6zM36 132h6v6h-6zM48 132h6v6h-6zM78 132h6v6h-6zM90 132h6v6h-6zM162 132h6v6h-6zM174 132h6v6h-6zM276 132h6v6h-6zM288 132h6v6h-6zM318 132h6v6h-6zM330 132h6v6h-6zM360 132h6v6h-6zM372 132h6v6h-6zM402 132h6v6h-6zM414 132h6v6h-6zM444 132h6v6h-6zM456 132h6v6h-6zM558 132h6v6h-6zM570 132h6v6h-6zM30 138h6v6h-6zM54 138h6v6h-6zM156 138h6v6h-6zM180 138h6v6h-6zM270 138h6v6h-6zM294 138h6v6h-6zM312 138h6v6h-6zM336 138h6v6h-6zM354 138h6v6h-6zM378 138h6v6h-6zM438 138h6v6h-6zM462 138h6v6h-6zM552 138h6v6h-6zM576 138h6v6h-6zM36 144h6v6h-6zM48 144h6v6h-6zM162 144h6v6h-6zM174 144h6v6h-6zM276 144h6v6h-6zM288 144h6v6h-6zM318 144h6v6h-6zM330 144h6v6h-6zM360 144h6v6h-6zM372 144h6v6h-6zM444 144h6v6h-6zM456 144h6v6h-6zM558 144h6v6h-6zM570 144h6v6h-6zM42 168h6v6h-6zM84 168h6v6h-6zM126 168h6v6h-6zM168 168h6v6h-6zM282 168h6v6h-6zM408 168h6v6h-6zM450 168h6v6h-6zM606 168h6v6h-6zM648 168h6v6h-6zM36 174h6v6h-6zM48 174h6v6h-6zM78 174h6v6h-6zM90 174h6v6h-6zM120 174h6v6h-6zM132 174h6v6h-6zM162 174h6v6h-6zM174 174h6v6h-6zM276 174h6v6h-6zM288 174h6v6h-6zM402 174h6v6h-6zM414 174h6v6h-6zM444 174h6v6h-6zM456 174h6v6h-6zM600 174h6v6h-6zM612 174h6v6h-6zM642 174h6v6h-6zM654 174h6v6h-6zM30 180h6v6h-6zM54 180h6v6h-6zM72 180h6v6h-6zM96 180h6v6h-6zM114 180h6v6h-6zM138 180h6v6h-6zM156 180h6v6h-6zM180 180h6v6h-6zM270 180h6v6h-6zM294 180h6v6h-6zM396 180h6v6h-6zM420 180h6v6h-6zM438 180h6v6h-6zM462 180h6v6h-6zM594 180h6v6h-6zM618 180h6v6h-6zM636 180h6v6h-6zM660 180h6v6h-6zM36 186h6v6h-6zM48 186h6v6h-6zM78 186h6v6h-6zM90 186h6v6h-6zM120 186h6v6h-6zM132 186h6v6h-6zM162 186h6v6h-6zM174 186h6v6h-6zM276 186h6v6h-6zM288 186h6v6h-6zM402 186h6v6h-6zM414 186h6v6h-6zM444 186h6v6h-6zM456 186h6v6h-6zM600 186h6v6h-6zM612 186h6v6h-6zM642 186h6v6h-6zM654 186h6v6h-6zM84 210h6v6h-6zM126 210h6v6h-6zM168 210h6v6h-6zM78 216h6v6h-6zM90 216h6v6h-6zM120 216h6v6h-6zM132 216h6v6h-6zM162 216h6v6h-6zM174 216h6v6h-6zM72 222h6v6h-6zM96 222h6v6h-6zM114 222h6v6h-6zM138 222h6v6h-6zM156 222h6v6h-6zM180 222h6v6h-6zM78 228h6v6h-6zM90 228h6v6h-6zM120 228h6v6h-6zM132 228h6v6h-6zM162 228h6v6h-6zM174 228h6v6h-6zM42 252h6v6h-6zM126 252h6v6h-6zM168 252h6v6h-6zM36 258h6v6h-6zM48 258h6v6h-6zM120 258h6v6h-6zM132 258h6v6h-6zM162 258h6v6h-6zM174 258h6v6h-6zM30 264h6v6h-6zM54 264h6v6h-6zM114 264h6v6h-6zM138 264h6v6h-6zM156 264h6v6h-6zM180 264h6v6h-6zM36 270h6v6h-6zM48 270h6v6h-6zM120 270h6v6h-6zM132 270h6v6h-6zM162 270h6v6h-6zM174 270h6v6h-6zM84 294h6v6h-6zM126 294h6v6h-6zM168 294h6v6h-6zM324 294h6v6h-6zM366 294h6v6h-6zM486 294h6v6h-6zM636 294h6v6h-6zM78 300h6v6h-6zM90 300h6v6h-6zM120 300h6v6h-6zM132 300h6v6h-6zM162 300h6v6h-6zM174 300h6v6h-6zM318 300h6v6h-6zM330 300h6v6h-6zM360 300h6v6h-6zM372 300h6v6h-6zM480 300h6v6h-6zM492 300h6v6h-6zM630 300h6v6h-6zM642 300h6v6h-6zM72 306h6v6h-6zM96 306h6v6h-6zM114 306h6v6h-6zM138 306h6v6h-6zM156 306h6v6h-6zM180 306h6v6h-6zM312 306h6v6h-6zM336 306h6v6h-6zM354 306h6v6h-6zM378 306h6v6h-6zM474 306h6v6h-6zM498 306h6v6h-6zM624 306h6v6h-6zM648 306h6v6h-6zM78 312h6v6h-6zM90 312h6v6h-6zM120 312h6v6h-6zM132 312h6v6h-6zM162 312h6v6h-6zM174 312h6v6h-6zM318 312h6v6h-6zM330 312h6v6h-6zM360 312h6v6h-6zM372 312h6v6h-6zM480 312h6v6h-6zM492 312h6v6h-6zM630 312h6v6h-6zM642 312h6v6h-6zM594 336h6v6h-6zM588 342h6v6h-6zM600 342h6v6h-6zM582 348h6v6h-6zM606 348h6v6h-6zM588 354h6v6h-6zM600 354h6v6h-6zM324 378h6v6h-6zM318 384h6v6h-6zM330 384h6v6h-6zM312 390h6v6h-6zM336 390h6v6h-6zM318 396h6v6h-6zM330 396h6v6h-6zM42 414h6v6h-6zM168 414h6v6h-6zM36 420h6v6h-6zM48 420h6v6h-6zM162 420h6v6h-6zM174 420h6v6h-6zM30 426h6v6h-6zM54 426h6v6h-6zM156 426h6v6h-6zM180 426h6v6h-6zM36 432h6v6h-6zM48 432h6v6h-6zM162 432h6v6h-6zM174 432h6v6h-6zM444 462h6v6h-6zM438 468h6v6h-6zM450 468h6v6h-6zM432 474h6v6h-6zM456 474h6v6h-6zM438 480h6v6h-6zM450 480h6v6h-6zM444 504h6v6h-6zM594 504h6v6h-6zM636 504h6v6h-6zM438 510h6v6h-6zM450 510h6v6h-6zM588 510h6v6h-6zM600 510h6v6h-6zM630 510h6v6h-6zM642 510h6v6h-6zM432 516h6v6h-6zM456 516h6v6h-6zM582 516h6v6h-6zM606 516h6v6h-6zM624 516h6v6h-6zM648 516h6v6h-6zM438 522h6v6h-6zM450 522h6v6h-6zM588 522h6v6h-6zM600 522h6v6h-6zM630 522h6v6h-6zM642 522h6v6h-6z"/>
<path fill="#82c9f0" d="M0 6h126v6h-126zM156 6h480v6h-480zM642 6h78v6h-78z"/>
<path fill="#836a55" d="M264 456h138v12h-138zM264 480h138v12h-138zM264 504h54v6h-54zM336 504h66v6h-66zM264 510h138v6h-138zM264 528h138v12h-138zM264 552h138v12h-138z"/>
<path fill="#86cbf1" d="M0 12h120v6h-120zM156 12h6v6h-6zM168 12h450v6h-450zM660 12h60v6h-60z"/>
<path fill="#8acdf1" d="M0 18h114v6h-114zM174 18h204v6h-204zM384 18h228v6h-228zM666 18h54v6h-54z"/>
<path fill="#8ecff2" d="M0 24h108v6h-108zM180 24h186v6h-186zM396 24h210v6h-210zM672 24h48v6h-48z"/>
<path fill="#92d1f2" d="M0 30h114v6h-114zM174 30h186v6h-186zM396 30h6v6h-6zM408 30h198v6h-198zM672 30h48v6h-48z"/>
<path fill="#96d3f3" d="M0 36h120v6h-120zM126 36h12v6h-12zM144 36h18v6h-18zM168 36h186v6h-186zM414 36h192v6h-192zM672 36h48v6h-48z"/>
<path fill="#9bd5f3" d="M0 42h348v6h-348zM420 42h180v6h-180zM678 42h42v6h-42z"/>
<path fill="#9c8f36" d="M30 210h6v6h-6zM54 210h6v6h-6zM36 216h6v6h-6zM48 216h6v6h-6zM42 222h6v6h-6zM36 228h6v6h-6zM48 228h6v6h-6zM42 234h6v12h-6zM432 294h6v6h-6zM456 294h6v6h-6zM438 300h6v6h-6zM450 300h6v6h-6zM444 306h6v6h-6zM438 312h6v6h-6zM450 312h6v6h-6zM444 318h6v12h-6zM72 414h6v6h-6zM96 414h6v6h-6zM114 414h6v6h-6zM138 414h6v6h-6zM78 420h6v6h-6zM90 420h6v6h-6zM120 420h6v6h-6zM132 420h6v6h-6zM84 426h6v6h-6zM126 426h6v6h-6zM78 432h6v6h-6zM90 432h6v6h-6zM120 432h6v6h-6zM132 432h6v6h-6zM84 438h6v12h-6zM126 438h6v12h-6z"/>
<path fill="#9fd6f4" d="M0 48h354v6h-354zM414 48h192v6h-192zM672 48h48v6h-48z"/>
<path fill="#a3d8f4" d="M0 54h360v6h-360zM366 54h12v6h-12zM384 54h18v6h-18zM408 54h198v6h-198zM672 54h48v6h-48z"/>
<path fill="#a7daf5" d="M0 60h606v6h-606zM672 60h48v6h-48z"/>
<path fill="#abdcf5" d="M0 66h612v6h-612zM666 66h54v6h-54z"/>
<path fill="#afdef6" d="M0 72h618v6h-618zM660 72h60v6h-60z"/>
<path fill="#b0824f" d="M24 96h6v6h-6zM72 96h18v6h-18zM96 96h30v6h-30zM132 96h30v6h-30zM168 96h30v6h-30zM204 96h30v6h-30zM264 96h6v6h-6zM372 96h30v6h-30zM408 96h30v6h-30zM444 96h30v6h-30zM480 96h30v6h-30zM516 96h6v6h-6zM546 96h6v6h-6zM678 96h6v6h-6zM690 96h6v6h-6zM18 102h6v30h-6zM240 102h6v30h-6zM258 102h6v30h-6zM522 102h6v30h-6zM540 102h6v18h-6zM696 102h6v18h-6zM18 138h6v30h-6zM240 138h6v30h-6zM258 138h6v30h-6zM522 138h6v30h-6zM18 174h6v30h-6zM240 174h6v30h-6zM258 174h6v30h-6zM522 174h6v30h-6zM18 210h6v30h-6zM240 210h6v30h-6zM258 210h6v30h-6zM522 210h6v30h-6zM540 228h6v12h-6zM696 228h6v12h-6zM18 246h6v30h-6zM240 246h6v30h-6zM258 246h36v6h-36zM300 246h30v6h-30zM336 246h30v6h-30zM372 246h30v6h-30zM408 246h30v6h-30zM444 246h30v6h-30zM480 246h30v6h-30zM516 246h12v6h-12zM540 246h24v6h-24zM678 246h6v6h-6zM690 246h12v6h-12zM264 264h6v6h-6zM360 264h6v6h-6zM372 264h30v6h-30zM426 264h6v6h-6zM522 264h6v6h-6zM534 264h18v6h-18zM576 264h6v6h-6zM684 264h12v6h-12zM258 270h6v30h-6zM402 270h6v30h-6zM420 270h6v30h-6zM552 270h6v30h-6zM570 270h6v18h-6zM696 270h6v18h-6zM18 282h6v30h-6zM240 282h6v30h-6zM258 306h6v30h-6zM402 306h6v30h-6zM420 306h6v30h-6zM552 306h6v30h-6zM18 318h6v30h-6zM240 318h6v30h-6zM258 342h6v30h-6zM402 342h6v30h-6zM420 342h6v30h-6zM552 342h6v30h-6zM18 354h36v6h-36zM60 354h30v6h-30zM96 354h30v6h-30zM132 354h30v6h-30zM168 354h30v6h-30zM204 354h30v6h-30zM240 354h6v6h-6zM258 378h6v30h-6zM402 378h6v30h-6zM420 378h6v24h-6zM552 378h6v24h-6zM24 384h6v6h-6zM222 384h12v6h-12zM570 384h6v18h-6zM696 384h6v18h-6zM18 390h6v18h-6zM240 390h6v18h-6zM420 402h36v6h-36zM462 402h30v6h-30zM498 402h30v6h-30zM534 402h24v6h-24zM570 402h24v6h-24zM684 402h18v6h-18zM258 414h6v12h-6zM402 414h6v12h-6zM258 426h36v6h-36zM300 426h30v6h-30zM336 426h30v6h-30zM372 426h36v6h-36zM426 432h6v6h-6zM540 432h12v6h-12zM576 432h6v6h-6zM684 432h12v6h-12zM420 438h6v30h-6zM552 438h6v30h-6zM570 438h6v18h-6zM696 438h6v18h-6zM264 444h6v6h-6zM384 444h18v6h-18zM258 450h6v18h-6zM402 450h6v18h-6zM420 474h6v30h-6zM552 474h6v30h-6zM420 510h6v30h-6zM552 510h6v30h-6zM420 546h6v24h-6zM552 546h6v24h-6zM18 552h6v12h-6zM240 552h6v12h-6zM570 552h6v18h-6zM696 552h6v18h-6zM258 558h6v12h-6zM402 558h6v12h-6zM18 570h24v6h-24zM222 570h12v6h-12zM240 570h6v6h-6zM258 570h24v6h-24zM384 570h24v6h-24zM420 570h36v6h-36zM462 570h30v6h-30zM498 570h30v6h-30zM534 570h24v6h-24zM570 570h24v6h-24zM684 570h18v6h-18z"/>
<path fill="#b3e0f6" d="M0 78h636v6h-636zM642 78h78v6h-78z"/>
<path fill="#bfae45" d="M42 228h6v6h-6zM444 312h6v6h-6zM84 432h6v6h-6zM126 432h6v6h-6z"/>
<path fill="#d0a370" d="M18 96h6v6h-6zM90 96h6v6h-6zM126 96h6v6h-6zM162 96h6v6h-6zM198 96h6v6h-6zM234 96h12v6h-12zM258 96h6v6h-6zM366 96h6v6h-6zM402 96h6v6h-6zM438 96h6v6h-6zM474 96h6v6h-6zM510 96h6v6h-6zM522 96h6v6h-6zM540 96h6v6h-6zM684 96h6v6h-6zM696 96h6v6h-6zM18 132h6v6h-6zM240 132h6v6h-6zM258 132h6v6h-6zM522 132h6v6h-6zM18 168h6v6h-6zM240 168h6v6h-6zM258 168h6v6h-6zM522 168h6v6h-6zM18 204h6v6h-6zM240 204h6v6h-6zM258 204h6v6h-6zM522 204h6v6h-6zM18 240h6v6h-6zM240 240h6v6h-6zM258 240h6v6h-6zM522 240h6v6h-6zM540 240h6v6h-6zM696 240h6v6h-6zM294 246h6v6h-6zM330 246h6v6h-6zM366 246h6v6h-6zM402 246h6v6h-6zM438 246h6v6h-6zM474 246h6v6h-6zM510 246h6v6h-6zM684 246h6v6h-6zM258 264h6v6h-6zM366 264h6v6h-6zM402 264h6v6h-6zM420 264h6v6h-6zM528 264h6v6h-6zM552 264h6v6h-6zM570 264h6v6h-6zM678 264h6v6h-6zM696 264h6v6h-6zM18 276h6v6h-6zM240 276h6v6h-6zM258 300h6v6h-6zM402 300h6v6h-6zM420 300h6v6h-6zM552 300h6v6h-6zM18 312h6v6h-6zM240 312h6v6h-6zM258 336h6v6h-6zM402 336h6v6h-6zM420 336h6v6h-6zM552 336h6v6h-6zM18 348h6v6h-6zM240 348h6v6h-6zM54 354h6v6h-6zM90 354h6v6h-6zM126 354h6v6h-6zM162 354h6v6h-6zM198 354h6v6h-6zM234 354h6v6h-6zM258 372h6v6h-6zM402 372h6v6h-6zM420 372h6v6h-6zM552 372h6v6h-6zM18 384h6v6h-6zM234 384h12v6h-12zM456 402h6v6h-6zM492 402h6v6h-6zM528 402h6v6h-6zM678 402h6v6h-6zM258 408h6v6h-6zM402 408h6v6h-6zM294 426h6v6h-6zM330 426h6v6h-6zM366 426h6v6h-6zM420 432h6v6h-6zM552 432h6v6h-6zM570 432h6v6h-6zM678 432h6v6h-6zM696 432h6v6h-6zM258 444h6v6h-6zM402 444h6v6h-6zM420 468h6v6h-6zM552 468h6v6h-6zM420 504h6v6h-6zM552 504h6v6h-6zM420 540h6v6h-6zM552 540h6v6h-6zM258 552h6v6h-6zM402 552h6v6h-6zM18 564h6v6h-6zM240 564h6v6h-6zM234 570h6v6h-6zM456 570h6v6h-6zM492 570h6v6h-6zM528 570h6v6h-6zM678 570h6v6h-6z"/>
<path fill="#f2f7fb" d="M138 0h6v6h-6zM126 6h30v6h-30zM120 12h36v6h-36zM162 12h6v6h-6zM114 18h60v6h-60zM378 18h6v6h-6zM108 24h72v6h-72zM366 24h30v6h-30zM114 30h60v6h-60zM360 30h36v6h-36zM402 30h6v6h-6zM120 36h6v6h-6zM138 36h6v6h-6zM162 36h6v6h-6zM354 36h60v6h-60zM348 42h72v6h-72zM354 48h60v6h-60zM360 54h6v6h-6zM378 54h6v6h-6zM402 54h6v6h-6z"/>
<path fill="#ffd94a" d="M636 18h6v6h-6zM624 24h30v6h-30zM618 30h42v12h-42zM612 42h54v6h-54zM618 48h42v12h-42zM624 60h30v6h-30zM636 66h6v6h-6z"/>
<path fill="#ffec9e" d="M636 6h6v6h-6zM618 12h42v6h-42zM612 18h24v6h-24zM642 18h24v6h-24zM606 24h18v6h-18zM654 24h18v6h-18zM606 30h12v12h-12zM660 30h12v12h-12zM600 42h12v6h-12zM666 42h12v6h-12zM606 48h12v12h-12zM660 48h12v12h-12zM606 60h18v6h-18zM654 60h18v6h-18zM612 66h24v6h-24zM642 66h24v6h-24zM618 72h42v6h-42zM636 78h6v6h-6z"/>
</g>
<g class="label" fill="#f7ecd8" font-size="10">
<text x="36" y="99">farm/</text>
<text x="36" y="387">./</text>
<text x="276" y="99">internal/repo/</text>
<text x="558" y="99">.github/workflows/</text>
<text x="276" y="267">internal/tui/</text>
<text x="276" y="447">.github/</text>
<text x="438" y="267">cmd/git-farm/</text>
<text x="588" y="267">docs/</text>
<text x="438" y="435">internal/gitlog/</text>
<text x="588" y="435">other/</text>
</g>
<g fill="transparent" pointer-events="all">
<rect x="18" y="96" width="228" height="264"><title>farm/ — healthy, tests found — 17 files, 1 churned, 1 big</title></rect>
<rect x="18" y="384" width="228" height="192"><title>./ — a hotspot, no rule here, so no claim — 9 files, 3 churned</title></rect>
<rect x="258" y="96" width="270" height="156"><title>internal/repo/ — healthy, tests found — 8 files, 1 big</title></rect>
<rect x="540" y="96" width="162" height="156"><title>.github/workflows/ — healthy, no rule here, so no claim — 3 files</title></rect>
<rect x="258" y="264" width="150" height="168"><title>internal/tui/ — healthy, tests found — 3 files</title></rect>
<rect x="258" y="444" width="150" height="132"><title>.github/ — dead, no rule here, so no claim — 2 files, 2 deleted</title></rect>
<rect x="420" y="264" width="138" height="144"><title>cmd/git-farm/ — healthy, tests found — 2 files, 1 churned</title></rect>
<rect x="570" y="264" width="132" height="144"><title>docs/ — healthy, no rule here, so no claim — 2 files</title></rect>
<rect x="420" y="432" width="138" height="144"><title>internal/gitlog/ — healthy, tests found — 2 files</title></rect>
<rect x="570" y="432" width="132" height="144"><title>other/ — healthy, no rule here, so no claim — 2 files</title></rect>
</g>
<g class="walk">
<g class="step-a">
<g shape-rendering="crispEdges">
<path fill="#2a2118" d="M48 558h6v6h-6zM60 558h6v6h-6z"/>
<path fill="#33406b" d="M48 546h6v12h-6zM60 546h6v12h-6z"/>
<path fill="#3f6fd9" d="M42 528h30v18h-30z"/>
<path fill="#d94f3d" d="M48 498h18v6h-18zM42 504h30v6h-30zM36 510h42v6h-42z"/>
<path fill="#f0c090" d="M48 516h18v12h-18zM36 534h6v6h-6zM72 534h6v6h-6z"/>
</g>
</g>
<g class="step-b" fill-opacity="0">
<g shape-rendering="crispEdges">
<path fill="#2a2118" d="M42 558h6v6h-6zM66 558h6v6h-6z"/>
<path fill="#33406b" d="M48 546h12v6h-12zM42 552h6v6h-6zM60 552h6v6h-6z"/>
<path fill="#3f6fd9" d="M42 528h30v18h-30z"/>
<path fill="#d94f3d" d="M48 498h18v6h-18zM42 504h30v6h-30zM36 510h42v6h-42z"/>
<path fill="#f0c090" d="M48 516h18v12h-18zM36 534h6v6h-6zM72 534h6v6h-6z"/>
</g>
</g>
<g fill="transparent" pointer-events="all">
<rect x="36" y="498" width="42" height="66"><title>Haleh committed last, in ./</title></rect>
</g>
</g>
</svg>
